<svg width="24" height="24" viewBox="0 0 24 24" fill="none" xmlns="http://www.w3.org/2000/svg">
<rect x="2" y="3.48633" width="1.46917" height="10.0144" fill="white"/>
<rect x="6.22461" y="9.23047" width="1.46917" height="4.26541" fill="white"/>
<rect x="7.69141" y="7.74805" width="1.46917" height="1.48362" fill="white"/>
<rect x="3.46875" y="13.4961" width="1.46917" height="1.48362" fill="white"/>
<rect x="4.93945" y="14.9805" width="1.46917" height="1.48362" fill="white"/>
<rect x="6.41016" y="16.4629" width="1.46917" height="1.48362" fill="white"/>
<rect x="7.69141" y="13.4961" width="1.46917" height="1.48362" fill="white"/>
<rect x="9.16211" y="14.9805" width="1.46917" height="1.48362" fill="white"/>
<rect x="14.6738" y="14.9805" width="1.46917" height="1.48362" fill="white"/>
<rect x="16.1387" y="13.4961" width="1.46917" height="1.48362" fill="white"/>
<rect x="17.6094" y="14.9805" width="1.46917" height="1.48362" fill="white"/>
<rect x="19.0781" y="16.4629" width="1.46917" height="1.48362" fill="white"/>
<rect x="20.5488" y="17.9473" width="1.46917" height="2.59634" fill="white"/>
<rect x="10.6328" y="16.4629" width="4.04021" height="1.48362" fill="white"/>
<rect x="10.8125" y="20.541" width="9.73323" height="1.48362" fill="white"/>
<rect x="7.87305" y="17.9473" width="1.46917" height="1.48362" fill="white"/>
<rect x="9.3457" y="19.4316" width="1.46917" height="1.48362" fill="white"/>
<rect x="9.16211" y="6.26367" width="1.46917" height="1.48362" fill="white"/>
<rect x="7.69141" y="4.7793" width="1.46917" height="1.48362" fill="white"/>
<rect x="6.22461" y="3.29688" width="1.46917" height="1.48362" fill="white"/>
<rect x="3.46875" y="2" width="2.75469" height="1.48362" fill="white"/>
</svg>
