<svg width="24" height="23" viewBox="0 0 24 23" fill="none" xmlns="http://www.w3.org/2000/svg">
<path d="M18.786 10.4756L19.8997 10.1992L21.2764 15.7458L20.1627 16.0223L18.786 10.4756ZM19.0563 16.2969L20.1627 16.0223L20.4392 17.136L19.3327 17.4106L19.0563 16.2969ZM17.4049 9.64378L18.5114 9.36916L18.786 10.4756L17.6796 10.7502L17.4049 9.64378ZM18.2263 17.6852L19.3327 17.4106L19.6074 18.517L18.5009 18.7917L18.2263 17.6852ZM16.0239 8.81198L17.1303 8.53736L17.4049 9.64378L16.2985 9.91841L16.0239 8.81198ZM16.0239 8.81198L15.7475 7.69827L11.3072 8.80039L10.2069 4.3674L9.10045 4.64203L10.4772 10.1887L16.0239 8.81198ZM14.0784 10.4695L15.1848 10.1948L16.0105 13.5214L14.9041 13.796L14.0784 10.4695ZM10.7518 11.2951L11.8582 11.0205L12.6839 14.3471L11.5775 14.6217L10.7518 11.2951ZM6.60389 4.07938L8.82402 3.52832L9.10045 4.64203L6.88032 5.19309L6.60389 4.07938ZM9.07662 18.774L10.1831 18.4993L10.7341 20.7195L9.62768 20.9941L9.07662 18.774ZM7.97631 14.341L9.08274 14.0663L6.88032 5.19309L5.77389 5.46771L7.15063 11.0144L4.9305 11.5655L5.20512 12.6719L7.42526 12.1208L7.97631 14.341ZM7.68829 17.944L8.802 17.6675L9.07662 18.774L7.96292 19.0504L7.68829 17.944ZM6.30724 17.1122L7.41367 16.8375L7.68829 17.944L6.58186 18.2186L6.30724 17.1122ZM4.0987 12.9465L5.20512 12.6719L6.30724 17.1122L5.20081 17.3868L4.0987 12.9465Z" fill="white"/>
</svg>
